<svg width="56" height="56" viewBox="0 0 56 56" fill="none" xmlns="http://www.w3.org/2000/svg">
<rect width="56" height="56" rx="16" fill="#FFEDBA" fill-opacity="0.8"/>
<path d="M28.0017 43.6652H28.0004C19.3626 43.6652 12.3351 36.638 12.3345 28.0002C12.3345 19.362 19.3617 12.3348 27.9998 12.3348C36.6379 12.3348 43.6651 19.3623 43.6651 28.0002C43.6651 36.6377 36.6385 43.6652 28.0017 43.6652ZM27.9998 13.5845C20.051 13.5845 13.5845 20.0511 13.5845 27.9998C13.5851 35.9486 20.052 42.4152 28.0004 42.4152H28.0017C35.9495 42.4152 42.4151 35.9486 42.4151 27.9998C42.4151 20.0511 35.9485 13.5845 27.9998 13.5845Z" fill="#FBBC04" fill-opacity="0.8"/>
<path d="M28.209 40.5046C24.2938 40.5046 21.1084 37.5078 21.1084 33.8249C21.1084 33.3419 21.5004 32.9499 21.9834 32.9499C22.4664 32.9499 22.8584 33.3419 22.8584 33.8249C22.8584 36.5431 25.2585 38.7546 28.209 38.7546C31.1591 38.7546 33.5592 36.5431 33.5592 33.8249C33.5592 31.1067 31.1595 28.8951 28.209 28.8951C24.2938 28.8951 21.1084 25.8987 21.1084 22.2154C21.1084 18.5325 24.2938 15.5361 28.209 15.5361C30.3138 15.5361 32.2961 16.4058 33.6489 17.9226C33.9705 18.2836 33.939 18.8366 33.5785 19.1581C33.218 19.4797 32.6641 19.4478 32.3434 19.0877C31.3223 17.9428 29.8155 17.2861 28.2095 17.2861C25.259 17.2861 22.8588 19.4972 22.8588 22.2154C22.8588 24.9336 25.259 27.1451 28.2095 27.1451C32.1242 27.1451 35.3096 30.142 35.3096 33.8249C35.3096 37.5078 32.1238 40.5046 28.209 40.5046Z" fill="#FBBC04" fill-opacity="0.8"/>
<path d="M28.0142 43.6809C27.5312 43.6809 27.1392 43.2889 27.1392 42.8059V13.2353C27.1392 12.7523 27.5312 12.3603 28.0142 12.3603C28.4972 12.3603 28.8892 12.7523 28.8892 13.2353V42.8059C28.8892 43.2889 28.4976 43.6809 28.0142 43.6809Z" fill="#FBBC04" fill-opacity="0.8"/>
</svg>
